<?xml version="1.0" encoding="UTF-8" standalone="no"?>
<!-- Generator: Adobe Illustrator 19.0.0, SVG Export Plug-In . SVG Version: 6.00 Build 0)  -->

<svg
   xmlns:dc="http://purl.org/dc/elements/1.1/"
   xmlns:cc="http://creativecommons.org/ns#"
   xmlns:rdf="http://www.w3.org/1999/02/22-rdf-syntax-ns#"
   xmlns:svg="http://www.w3.org/2000/svg"
   xmlns="http://www.w3.org/2000/svg"
   xmlns:sodipodi="http://sodipodi.sourceforge.net/DTD/sodipodi-0.dtd"
   xmlns:inkscape="http://www.inkscape.org/namespaces/inkscape"
   version="1.1"
   id="Layer_1"
   x="0px"
   y="0px"
   viewBox="0 0 493.623 493.623"
   style="enable-background:new 0 0 493.623 493.623;"
   xml:space="preserve"
   inkscape:version="0.91 r13725"
   sodipodi:docname="direction-left.svg"
   inkscape:export-filename="C:\Users\Frank\Documents\Meine Dokumente\Karten\Interaktive Karte\MovePointOnLine\svg\direction-left.png"
   inkscape:export-xdpi="7.29"
   inkscape:export-ydpi="7.29"><metadata
     id="metadata69"><rdf:RDF><cc:Work
         rdf:about=""><dc:format>image/svg+xml</dc:format><dc:type
           rdf:resource="http://purl.org/dc/dcmitype/StillImage" /><dc:title></dc:title></cc:Work></rdf:RDF></metadata><defs
     id="defs67" /><sodipodi:namedview
     pagecolor="#ffffff"
     bordercolor="#666666"
     borderopacity="1"
     objecttolerance="10"
     gridtolerance="10"
     guidetolerance="10"
     inkscape:pageopacity="0"
     inkscape:pageshadow="2"
     inkscape:window-width="1920"
     inkscape:window-height="1017"
     id="namedview65"
     showgrid="false"
     inkscape:zoom="0.47809767"
     inkscape:cx="245.76568"
     inkscape:cy="246.81149"
     inkscape:window-x="-8"
     inkscape:window-y="-8"
     inkscape:window-maximized="1"
     inkscape:current-layer="Layer_1" /><path
     style="fill:#E09B00;"
     d="M420.718,280.206c0,76.997-77.848,101.825-173.891,101.825c-96.028,0-173.875-24.82-173.875-101.825  S150.8,140.8,246.827,140.8C342.871,140.8,420.718,203.201,420.718,280.206z"
     id="path3" /><path
     style="fill:#D89103;"
     d="M420.718,280.206c0-38.164-19.157-72.72-50.121-97.902l-17.92,17.92l-21.173-21.173l-21.173,21.173  l-21.173-21.173l-21.173,21.173l-21.157-21.165l-21.173,21.173l-21.173-21.173l-21.173,21.173l-21.173-21.173l-21.173,21.173  l-17.92-17.912c-30.972,25.167-50.105,59.731-50.105,97.894c0,76.997,77.848,101.825,173.875,101.825  C342.871,382.031,420.718,357.203,420.718,280.206z"
     id="path5" /><path
     style="fill:#F4C237;"
     d="M375.993,103.558c0,57.202-57.832,75.642-129.166,75.642s-129.166-18.44-129.166-75.642  S175.486,0,246.827,0S375.993,46.356,375.993,103.558z"
     id="path7" /><path
     style="fill:#EFB600;"
     d="M375.993,103.558c0,57.202-57.832,75.642-129.166,75.642s-129.166-18.44-129.166-75.642  s57.825-93.223,129.166-93.223S375.993,46.356,375.993,103.558z"
     id="path9" /><path
     style="fill:#EDA900;"
     d="M375.993,103.558c0,57.202-57.832,75.642-129.166,75.642s-129.166-18.44-129.166-75.642"
     id="path11" /><ellipse
     style="fill:#97A8AA;"
     cx="246.819"
     cy="453.553"
     rx="165.25"
     ry="40.07"
     id="ellipse13" /><path
     style="fill:#AEB9BA;"
     d="M412.077,453.553c0,22.142-73.988,40.07-165.258,40.07s-165.25-17.936-165.25-40.07"
     id="path15" /><path
     style="fill:#E8B277;"
     d="M419.552,195.379l-24.537,24.537l-21.173-21.173l-21.173,21.173l-21.173-21.173l-21.173,21.173  l-21.173-21.173l-21.173,21.173l-21.15-21.165l-21.173,21.173l-21.173-21.173l-21.173,21.173l-21.173-21.173l-21.173,21.173  l-21.173-21.173l-21.173,21.173l-24.537-24.529c-9.169,31.815-14.249,62.503-14.249,87.891  c0,103.282,83.724,186.998,186.951,186.998c103.29,0,186.982-83.716,186.982-186.998  C433.794,257.89,428.721,227.202,419.552,195.379z"
     id="path17" /><path
     style="fill:#EFBF8B;"
     d="M98.647,219.916L74.11,195.387c-9.169,31.815-14.249,62.503-14.249,87.891l43-67.576L98.647,219.916z  "
     id="path19" /><path
     style="fill:#D89E60;"
     d="M419.552,195.379l-24.537,24.537l-21.173-21.173l-21.173,21.173l-21.173-21.173l-21.173,21.173  l-21.173-21.173l-21.173,21.173l-21.15-21.165l-0.016,0.008v271.525c103.29,0,186.982-83.716,186.982-186.998  C433.794,257.89,428.721,227.202,419.552,195.379z"
     id="path21" /><circle
     style="fill:#2D2612;"
     cx="189.405"
     cy="71.223"
     r="14.108"
     id="circle23" /><path
     style="fill:#443B23;"
     d="M175.289,71.223c0,1.434,0.276,2.788,0.662,4.08c1.308,0.402,2.662,0.677,4.096,0.677  c7.782,0,14.108-6.317,14.108-14.108c0-1.434-0.276-2.788-0.677-4.096c-1.292-0.394-2.647-0.67-4.08-0.67  C181.599,57.108,175.289,63.425,175.289,71.223z"
     id="path25" /><circle
     style="fill:#2D2612;"
     cx="304.258"
     cy="71.223"
     r="14.108"
     id="circle27" /><path
     style="fill:#443B23;"
     d="M290.15,71.223c0,1.434,0.276,2.788,0.677,4.08c1.292,0.402,2.647,0.677,4.08,0.677  c7.798,0,14.123-6.317,14.123-14.108c0-1.434-0.276-2.788-0.677-4.096c-1.308-0.394-2.647-0.67-4.096-0.67  C296.476,57.108,290.15,63.425,290.15,71.223z"
     id="path29" /><path
     style="fill:#D15400;"
     d="M276.949,93.767l-27.845-19.692c-1.371-0.969-3.182-0.969-4.553,0l-27.845,19.692  c-1.095,0.772-1.709,2.032-1.662,3.363s0.772,2.544,1.906,3.23l27.845,16.738c0.614,0.378,1.323,0.559,2.032,0.559  s1.418-0.181,2.032-0.559l27.845-16.738c1.142-0.685,1.859-1.898,1.906-3.23S278.044,94.531,276.949,93.767z"
     id="path31" /><path
     style="fill:#FF6D00;"
     d="M276.949,93.767l-27.845-19.692c-1.371-0.969-3.182-0.969-4.553,0l-27.845,19.692  c-1.095,0.772-1.709,2.032-1.662,3.363s0.772,2.544,1.906,3.23l27.845,5.238c0.614,0.378,1.323,0.559,2.032,0.559  s1.418-0.181,2.032-0.559l27.845-5.238c1.142-0.685,1.859-1.898,1.906-3.23S278.044,94.531,276.949,93.767z"
     id="path33" /><g
     id="g35" /><g
     id="g37" /><g
     id="g39" /><g
     id="g41" /><g
     id="g43" /><g
     id="g45" /><g
     id="g47" /><g
     id="g49" /><g
     id="g51" /><g
     id="g53" /><g
     id="g55" /><g
     id="g57" /><g
     id="g59" /><g
     id="g61" /><g
     id="g63" /><g
     id="g4209"
     transform="matrix(-1,0,0,-1,494.1803,641.12795)"><polygon
       transform="matrix(0.90480253,0,0,0.84352452,28.460704,104.6217)"
       id="polygon3"
       points="256,278.261 0,256 0,194.783 328.348,194.783 328.348,72.348 512,256 "
       style="fill:#8bc0ff" /><polygon
       transform="matrix(0.90480253,0,0,0.84352452,28.460704,104.6217)"
       id="polygon5"
       points="328.348,317.217 0,317.217 0,256 512,256 328.348,439.652 "
       style="fill:#3897ff" /></g></svg>