<?xml version="1.0" encoding="UTF-8" standalone="no"?>
<!-- Generator: Adobe Illustrator 19.0.0, SVG Export Plug-In . SVG Version: 6.00 Build 0)  -->

<svg
   xmlns:dc="http://purl.org/dc/elements/1.1/"
   xmlns:cc="http://creativecommons.org/ns#"
   xmlns:rdf="http://www.w3.org/1999/02/22-rdf-syntax-ns#"
   xmlns:svg="http://www.w3.org/2000/svg"
   xmlns="http://www.w3.org/2000/svg"
   xmlns:sodipodi="http://sodipodi.sourceforge.net/DTD/sodipodi-0.dtd"
   xmlns:inkscape="http://www.inkscape.org/namespaces/inkscape"
   version="1.1"
   id="Layer_1"
   x="0px"
   y="0px"
   viewBox="0 0 300.95 300.95"
   style="enable-background:new 0 0 300.95 300.95;"
   xml:space="preserve"
   inkscape:version="0.91 r13725"
   sodipodi:docname="finish.svg"
   inkscape:export-filename="C:\Users\Frank\Documents\Meine Dokumente\Karten\Interaktive Karte\MovePointOnLine\finish.png"
   inkscape:export-xdpi="9.8687487"
   inkscape:export-ydpi="9.8687487"><metadata
     id="metadata57"><rdf:RDF><cc:Work
         rdf:about=""><dc:format>image/svg+xml</dc:format><dc:type
           rdf:resource="http://purl.org/dc/dcmitype/StillImage" /></cc:Work></rdf:RDF></metadata><defs
     id="defs55" /><sodipodi:namedview
     pagecolor="#ffffff"
     bordercolor="#666666"
     borderopacity="1"
     objecttolerance="10"
     gridtolerance="10"
     guidetolerance="10"
     inkscape:pageopacity="0"
     inkscape:pageshadow="2"
     inkscape:window-width="1920"
     inkscape:window-height="1017"
     id="namedview53"
     showgrid="false"
     inkscape:zoom="2.2180056"
     inkscape:cx="133.6904"
     inkscape:cy="149.93769"
     inkscape:window-x="-8"
     inkscape:window-y="-8"
     inkscape:window-maximized="1"
     inkscape:current-layer="Layer_1" /><path
     style="color:#000000;clip-rule:nonzero;display:inline;overflow:visible;visibility:visible;opacity:1;isolation:auto;mix-blend-mode:normal;color-interpolation:sRGB;color-interpolation-filters:linearRGB;solid-color:#000000;solid-opacity:1;fill:#ffffff;fill-opacity:1;fill-rule:evenodd;stroke:#ffffff;stroke-width:2;stroke-linecap:butt;stroke-linejoin:miter;stroke-miterlimit:4;stroke-dasharray:none;stroke-dashoffset:0;stroke-opacity:1;color-rendering:auto;image-rendering:auto;shape-rendering:auto;text-rendering:auto;enable-background:accumulate"
     d="m 4.9594107,26.379015 c 102.2290093,13.725842 199.7270193,11.616102 289.9000893,0 l 0,103.696765 c -96.9652,6.55996 -195.11934,7.5685 -289.9000893,0 z"
     id="rect4202"
     inkscape:connector-curvature="0"
     sodipodi:nodetypes="ccccc" /><g
     id="g7"><path
       d="M 296.075,0 C 293.41,0 291.2,2.21 291.2,4.875 l 0,16.315 C 280.735,22.425 194.675,32.37 150.475,32.37 107.25,32.37 23.335,22.88 9.75,21.32 l 0,-16.445 C 9.75,2.21 7.54,0 4.875,0 2.21,0 0,2.21 0,4.875 l 0,291.2 c 0,2.665 2.21,4.875 4.875,4.875 2.665,0 4.875,-2.21 4.875,-4.875 l 0,-162.435 c 15.99,0.91 97.955,5.525 140.725,5.525 43.55,0 127.01,-4.745 140.725,-5.525 l 0,162.435 c 0,2.665 2.21,4.875 4.875,4.875 2.665,0 4.875,-2.21 4.875,-4.875 l 0,-291.2 C 300.95,2.21 298.74,0 296.075,0 Z M 291.2,123.825 c -11.7,0.715 -96.785,5.59 -140.725,5.59 -43.095,0 -126.295,-4.68 -140.725,-5.525 l 0,-92.82 c 16.64,1.885 98.02,10.985 140.725,10.985 43.42,0 126.165,-9.425 140.725,-11.115 l 0,92.885 z"
       id="path9"
       inkscape:connector-curvature="0" /><path
       d="m 58.24,53.95 -21.06,0 c -2.665,0 -4.875,2.21 -4.875,4.875 l 0,54.21 c 0,2.665 2.21,4.875 4.875,4.875 2.665,0 4.875,-2.21 4.875,-4.875 l 0,-21.84 5.655,0 c 2.665,0 4.875,-2.21 4.875,-4.875 0,-2.665 -2.21,-4.875 -4.875,-4.875 l -5.655,0 0,-17.745 16.185,0 c 2.665,0 4.875,-2.21 4.875,-4.875 0,-2.665 -2.145,-4.875 -4.875,-4.875 z"
       id="path11"
       inkscape:connector-curvature="0" /><path
       d="m 134.29,53.95 c -2.665,0 -4.875,2.21 -4.875,4.875 l 0,36.53 -23.27,-39 c -1.105,-1.885 -3.315,-2.795 -5.46,-2.21 -2.08,0.585 -3.575,2.47 -3.575,4.68 l 0,54.145 c 0,2.665 2.21,4.875 4.875,4.875 2.665,0 4.875,-2.21 4.875,-4.875 l 0,-36.53 23.27,39 c 0.845,1.56 2.47,2.405 4.16,2.405 0.455,0 0.845,0 1.3,-0.13 2.08,-0.585 3.575,-2.47 3.575,-4.68 l 0,-54.21 c 0,-2.665 -2.21,-4.875 -4.875,-4.875 z"
       id="path13"
       inkscape:connector-curvature="0" /><path
       d="m 150.475,112.97 c 0,2.665 2.21,4.875 4.875,4.875 2.665,0 4.875,-2.145 4.875,-4.81 l 0,-54.21 c 0,-2.665 -2.21,-4.875 -4.875,-4.875 -2.665,0 -4.875,2.21 -4.875,4.875 l 0,54.145 z"
       id="path15"
       inkscape:connector-curvature="0" /><path
       d="m 231.335,117.91 c 2.665,0 4.875,-2.21 4.875,-4.875 l 0,-21.84 22.62,0 0,21.84 c 0,2.665 2.21,4.875 4.875,4.875 2.665,0 4.875,-2.21 4.875,-4.875 l 0,-54.21 c 0,-2.73 -2.145,-4.875 -4.875,-4.875 -2.665,0 -4.875,2.21 -4.875,4.875 l 0,22.62 -22.62,0 0,-22.62 c 0,-2.665 -2.21,-4.875 -4.875,-4.875 -2.665,0 -4.875,2.21 -4.875,4.875 l 0,54.21 c 0,2.665 2.21,4.875 4.875,4.875 z"
       id="path17"
       inkscape:connector-curvature="0" /><path
       d="m 80.08,53.95 c -2.665,0 -4.875,2.21 -4.875,4.875 l 0,54.145 c 0,2.665 2.21,4.875 4.875,4.875 2.73,0 4.875,-2.145 4.875,-4.81 l 0,-54.21 c 0,-2.665 -2.21,-4.875 -4.875,-4.875 z"
       id="path19"
       inkscape:connector-curvature="0" /><path
       d="m 190.515,90.805 0.78,0 c 4.615,0 8.775,4.16 8.905,7.54 0.26,5.915 -3.38,9.035 -7.15,9.555 -4.745,0.65 -8.97,-1.95 -10.01,-6.11 -0.65,-2.665 -3.315,-4.225 -5.915,-3.575 -2.665,0.65 -4.225,3.315 -3.575,5.915 2.015,8.19 9.36,13.585 17.94,13.585 0.975,0 1.95,-0.065 2.795,-0.195 8.19,-1.17 16.12,-8.255 15.6,-19.695 -0.39,-8.97 -9.1,-16.835 -18.655,-16.835 l -0.78,0 c -4.03,0 -8.125,-3.64 -8.125,-7.28 0,-0.13 0,-0.325 0,-0.52 -0.52,-4.615 2.535,-8.515 7.28,-9.23 3.9,-0.65 8.58,0.65 9.945,6.11 0.65,2.6 3.315,4.16 5.915,3.51 2.6,-0.65 4.16,-3.315 3.51,-5.915 -2.34,-9.36 -10.985,-14.885 -20.865,-13.325 -9.815,1.495 -16.445,9.945 -15.47,19.695 0.195,8.84 8.645,16.77 17.875,16.77 z"
       id="path21"
       inkscape:connector-curvature="0" /></g><g
     id="g23" /><g
     id="g25" /><g
     id="g27" /><g
     id="g29" /><g
     id="g31" /><g
     id="g33" /><g
     id="g35" /><g
     id="g37" /><g
     id="g39" /><g
     id="g41" /><g
     id="g43" /><g
     id="g45" /><g
     id="g47" /><g
     id="g49" /><g
     id="g51" /></svg>