<?xml version="1.0" encoding="UTF-8" standalone="no"?>
<!-- Generator: Adobe Illustrator 18.0.0, SVG Export Plug-In . SVG Version: 6.00 Build 0)  -->

<svg
   xmlns:dc="http://purl.org/dc/elements/1.1/"
   xmlns:cc="http://creativecommons.org/ns#"
   xmlns:rdf="http://www.w3.org/1999/02/22-rdf-syntax-ns#"
   xmlns:svg="http://www.w3.org/2000/svg"
   xmlns="http://www.w3.org/2000/svg"
   xmlns:sodipodi="http://sodipodi.sourceforge.net/DTD/sodipodi-0.dtd"
   xmlns:inkscape="http://www.inkscape.org/namespaces/inkscape"
   version="1.1"
   id="Capa_1"
   x="0px"
   y="0px"
   viewBox="0 0 32.000003 32"
   xml:space="preserve"
   inkscape:version="0.91 r13725"
   sodipodi:docname="huhn.svg"
   width="32"
   height="32"
   inkscape:export-filename="C:\Users\Frank\Documents\Meine Dokumente\Karten\Interaktive Karte\MovePointOnLine\svg\huhn-blau.png"
   inkscape:export-xdpi="112.5"
   inkscape:export-ydpi="112.5"><metadata
     id="metadata75"><rdf:RDF><cc:Work
         rdf:about=""><dc:format>image/svg+xml</dc:format><dc:type
           rdf:resource="http://purl.org/dc/dcmitype/StillImage" /><dc:title></dc:title></cc:Work></rdf:RDF></metadata><defs
     id="defs73" /><sodipodi:namedview
     pagecolor="#ffffff"
     bordercolor="#666666"
     borderopacity="1"
     objecttolerance="10"
     gridtolerance="10"
     guidetolerance="10"
     inkscape:pageopacity="0"
     inkscape:pageshadow="2"
     inkscape:window-width="1920"
     inkscape:window-height="1017"
     id="namedview71"
     showgrid="false"
     units="px"
     inkscape:zoom="10.823516"
     inkscape:cx="11.479574"
     inkscape:cy="14.346467"
     inkscape:window-x="-8"
     inkscape:window-y="-8"
     inkscape:window-maximized="1"
     inkscape:current-layer="layer2" /><g
     id="g41"
     transform="translate(0,-142.435)" /><g
     id="g43"
     transform="translate(0,-142.435)" /><g
     id="g45"
     transform="translate(0,-142.435)" /><g
     id="g47"
     transform="translate(0,-142.435)" /><g
     id="g49"
     transform="translate(0,-142.435)" /><g
     id="g51"
     transform="translate(0,-142.435)" /><g
     id="g53"
     transform="translate(0,-142.435)" /><g
     id="g55"
     transform="translate(0,-142.435)" /><g
     id="g57"
     transform="translate(0,-142.435)" /><g
     id="g59"
     transform="translate(0,-142.435)" /><g
     id="g61"
     transform="translate(0,-142.435)" /><g
     id="g63"
     transform="translate(0,-142.435)" /><g
     id="g65"
     transform="translate(0,-142.435)" /><g
     id="g67"
     transform="translate(0,-142.435)" /><g
     id="g69"
     transform="translate(0,-142.435)" /><g
     inkscape:groupmode="layer"
     id="layer1"
     inkscape:label="kreis"
     transform="translate(0,-142.435)" /><g
     inkscape:groupmode="layer"
     id="layer2"
     inkscape:label="huhn"
     transform="translate(0,-142.435)"><ellipse
       style="color:#000000;clip-rule:nonzero;display:inline;overflow:visible;visibility:visible;opacity:1;isolation:auto;mix-blend-mode:normal;color-interpolation:sRGB;color-interpolation-filters:linearRGB;solid-color:#000000;solid-opacity:1;fill:#87cdde;fill-opacity:1;fill-rule:evenodd;stroke:#216778;stroke-width:1.91399658;stroke-linecap:butt;stroke-linejoin:miter;stroke-miterlimit:4;stroke-dasharray:none;stroke-dashoffset:0;stroke-opacity:1;color-rendering:auto;image-rendering:auto;shape-rendering:auto;text-rendering:auto;enable-background:accumulate"
       id="path4204"
       cx="16.000002"
       cy="158.435"
       rx="15.043003"
       ry="15.043004" /><g
       transform="matrix(0.14381594,0,0,0.14381594,3.4567921,145.89167)"
       id="g3"><path
         style="fill:#d72027"
         d="m 44.471,65.265 c 0,0 -15.573,-17.608 -7.787,-27.472 5.983,-7.578 15.313,-7.267 15.313,-7.267 0,0 -6.747,-17.245 7.268,-21.544 14.016,-4.298 18.688,6.489 18.688,6.489 0,0 1.817,-18.674 17.131,-14.99 15.313,3.685 19.726,33.159 7.527,53.423 -12.199,20.264 -58.14,11.361 -58.14,11.361 z"
         id="path5"
         inkscape:connector-curvature="0" /><path
         style="fill:#b7191e"
         d="m 60.068,8.78 c 4.043,0.871 8.047,3.754 9.709,11.233 3.893,17.521 -11.031,20.635 -17.78,10.513 0,0 -9.33,-0.312 -15.313,7.267 -0.962,1.22 -1.563,2.559 -1.886,3.966 3.07,-3.046 7.417,-5.444 12.203,-2.084 9.149,6.425 -5.84,13.043 -2.531,23.166 0.353,1.08 1.069,1.974 1.973,2.763 8.912,1.422 45.482,6.05 56.167,-11.699 12.199,-20.264 7.787,-49.738 -7.527,-53.423 -2.09,-0.503 -3.909,-0.561 -5.525,-0.335 4.371,3.066 12.874,10.622 10.976,22.009 -2.53,15.183 -20.634,12.133 -22.581,-6.684 0,0 -4.511,-10.327 -17.885,-6.692 z"
         id="path7"
         inkscape:connector-curvature="0" /><path
         style="fill:#b0171c"
         d="m 38.76,98.529 c 0,0 -4.153,10.382 5.71,16.352 9.863,5.97 15.314,-8.306 15.573,-22.581 0.26,-14.275 -7.787,-20.765 -8.565,-20.765 -0.778,0 -5.97,7.527 -6.749,7.787 -0.777,0.26 -5.969,19.207 -5.969,19.207 z"
         id="path9"
         inkscape:connector-curvature="0" /><path
         style="fill:#d72027"
         d="m 41.875,74.65 c 0,0 -14.275,12.718 -10.382,26.993 3.893,14.275 21.024,4.932 20.764,-11.42 C 51.998,73.871 41.875,74.65 41.875,74.65 Z"
         id="path11"
         inkscape:connector-curvature="0" /><path
         style="fill:#fece45"
         d="m 49.532,56.611 c 0,0 -20.634,7.786 -28.032,17.909 0,0 15.184,6.229 29.979,3.504 L 49.532,56.611 Z"
         id="path13"
         inkscape:connector-curvature="0" /><path
         style="fill:#f9b144"
         d="M 51.479,78.024 50.697,69.423 C 37.508,73.846 21.5,74.52 21.5,74.52 c 0,0 15.184,6.23 29.979,3.504 z"
         id="path15"
         inkscape:connector-curvature="0" /><path
         style="fill:#fadbb7"
         d="m 113.383,130.974 c 0,0 15.573,-7.008 -7.787,-36.986 0,-0.001 13.237,26.863 7.787,36.986 z"
         id="path17"
         inkscape:connector-curvature="0" /><path
         style="fill:#ef4644"
         d="M 88.855,3.856 C 86.026,2.644 79.706,11.448 82.042,14.368 84.377,17.289 94.305,6.192 88.855,3.856 Z"
         id="path19"
         inkscape:connector-curvature="0" /><path
         style="fill:#ef4644"
         d="m 58.487,13.395 c -1.652,-0.699 -7.202,5.84 -4.477,9.538 2.725,3.7 9.538,-7.397 4.477,-9.538 z"
         id="path21"
         inkscape:connector-curvature="0" /><path
         style="fill:#ef4644"
         d="m 39.604,42.4 c -3.297,0.348 -2.92,9.149 0.195,10.123 3.115,0.973 3.504,-10.512 -0.195,-10.123 z"
         id="path23"
         inkscape:connector-curvature="0" /><path
         style="fill:#ef4644"
         d="m 37.657,87.368 c -2.313,-1.027 -6.229,10.707 -1.947,14.6 4.283,3.893 5.451,-13.042 1.947,-14.6 z"
         id="path25"
         inkscape:connector-curvature="0" /><path
         style="fill:#fce9cc"
         d="m 79.511,35.977 c -43.593,1.282 -35.819,40.49 -28.811,66.187 7.008,25.695 -15.574,56.064 1.557,68.523 17.13,12.458 27.253,-10.123 27.253,-10.123 0,0 7.787,9.344 22.581,6.23 14.795,-3.114 9.344,-25.696 9.344,-25.696 0,0 7.787,10.123 24.917,3.894 17.13,-6.23 24.917,-33.482 3.893,-54.506 C 119.222,69.459 105.985,35.198 79.511,35.977 Z"
         id="path27"
         inkscape:connector-curvature="0" /><circle
         style="fill:#fadbb7"
         cx="74.643997"
         cy="58.623001"
         r="6.8130002"
         id="circle29" /><circle
         style="fill:#623a01"
         cx="73.800003"
         cy="57.909"
         r="6.2290001"
         id="circle31" /><path
         style="fill:#fadbb7"
         d="m 136.353,144.989 c 17.13,-6.23 24.917,-33.482 3.893,-54.506 C 119.222,69.459 105.985,35.198 79.511,35.976 73.683,36.147 68.8,37.015 64.683,38.418 c 8.748,-1.156 31.569,-5.168 52.234,42.91 -1.334,-2.227 -4.581,-6.695 -10.542,-9.534 0,0 19.466,25.696 19.077,46.331 0,0 -2.725,-6.229 -7.787,-8.955 0,0 8.955,11.291 0.389,22.971 -8.565,11.68 -21.024,-6.229 -21.024,-6.229 0,0 9.344,15.573 0,26.864 0,0 2.726,-10.123 -1.557,-14.405 0,0 1.557,12.458 -7.008,16.741 -8.565,4.282 -18.299,-14.017 -18.299,-14.017 0,0 3.504,14.017 -8.954,24.918 0,0 3.115,-5.451 3.504,-11.681 0,0 -1.947,10.123 -13.626,9.733 -1.725,-0.058 -3.187,-0.539 -4.469,-1.261 0.952,3.073 2.701,5.744 5.637,7.88 17.13,12.458 27.253,-10.123 27.253,-10.123 0,0 7.787,9.344 22.581,6.23 14.795,-3.114 9.344,-25.696 9.344,-25.696 0,0 7.786,10.124 24.917,3.894 z"
         id="path33"
         inkscape:connector-curvature="0" /><path
         style="fill:#623a01"
         d="m 34.116,66.214 c -1.002,1.335 1.583,1.451 2.243,0.264 0.66,-1.188 -1.451,-1.32 -2.243,-0.264 z"
         id="path35"
         inkscape:connector-curvature="0" /><circle
         style="fill:#8c5619"
         cx="71.189003"
         cy="55.443001"
         r="1.411"
         id="circle37" /><circle
         style="fill:#8c5619"
         cx="69.193001"
         cy="56.854"
         r="0.53500003"
         id="circle39" /></g></g></svg>