<?xml version="1.0" encoding="iso-8859-1"?>
<!-- Generator: Adobe Illustrator 19.0.0, SVG Export Plug-In . SVG Version: 6.00 Build 0)  -->
<svg version="1.1" id="Layer_1" xmlns="http://www.w3.org/2000/svg" xmlns:xlink="http://www.w3.org/1999/xlink" x="0px" y="0px"
	 viewBox="0 0 493.623 493.623" style="enable-background:new 0 0 493.623 493.623;" xml:space="preserve">
<path style="fill:#E09B00;" d="M420.718,280.206c0,76.997-77.848,101.825-173.891,101.825c-96.028,0-173.875-24.82-173.875-101.825
	S150.8,140.8,246.827,140.8C342.871,140.8,420.718,203.201,420.718,280.206z"/>
<path style="fill:#D89103;" d="M420.718,280.206c0-38.164-19.157-72.72-50.121-97.902l-17.92,17.92l-21.173-21.173l-21.173,21.173
	l-21.173-21.173l-21.173,21.173l-21.157-21.165l-21.173,21.173l-21.173-21.173l-21.173,21.173l-21.173-21.173l-21.173,21.173
	l-17.92-17.912c-30.972,25.167-50.105,59.731-50.105,97.894c0,76.997,77.848,101.825,173.875,101.825
	C342.871,382.031,420.718,357.203,420.718,280.206z"/>
<path style="fill:#F4C237;" d="M375.993,103.558c0,57.202-57.832,75.642-129.166,75.642s-129.166-18.44-129.166-75.642
	S175.486,0,246.827,0S375.993,46.356,375.993,103.558z"/>
<path style="fill:#EFB600;" d="M375.993,103.558c0,57.202-57.832,75.642-129.166,75.642s-129.166-18.44-129.166-75.642
	s57.825-93.223,129.166-93.223S375.993,46.356,375.993,103.558z"/>
<path style="fill:#EDA900;" d="M375.993,103.558c0,57.202-57.832,75.642-129.166,75.642s-129.166-18.44-129.166-75.642"/>
<ellipse style="fill:#97A8AA;" cx="246.819" cy="453.553" rx="165.25" ry="40.07"/>
<path style="fill:#AEB9BA;" d="M412.077,453.553c0,22.142-73.988,40.07-165.258,40.07s-165.25-17.936-165.25-40.07"/>
<path style="fill:#E8B277;" d="M419.552,195.379l-24.537,24.537l-21.173-21.173l-21.173,21.173l-21.173-21.173l-21.173,21.173
	l-21.173-21.173l-21.173,21.173l-21.15-21.165l-21.173,21.173l-21.173-21.173l-21.173,21.173l-21.173-21.173l-21.173,21.173
	l-21.173-21.173l-21.173,21.173l-24.537-24.529c-9.169,31.815-14.249,62.503-14.249,87.891
	c0,103.282,83.724,186.998,186.951,186.998c103.29,0,186.982-83.716,186.982-186.998
	C433.794,257.89,428.721,227.202,419.552,195.379z"/>
<path style="fill:#EFBF8B;" d="M98.647,219.916L74.11,195.387c-9.169,31.815-14.249,62.503-14.249,87.891l43-67.576L98.647,219.916z
	"/>
<path style="fill:#D89E60;" d="M419.552,195.379l-24.537,24.537l-21.173-21.173l-21.173,21.173l-21.173-21.173l-21.173,21.173
	l-21.173-21.173l-21.173,21.173l-21.15-21.165l-0.016,0.008v271.525c103.29,0,186.982-83.716,186.982-186.998
	C433.794,257.89,428.721,227.202,419.552,195.379z"/>
<circle style="fill:#2D2612;" cx="189.405" cy="71.223" r="14.108"/>
<path style="fill:#443B23;" d="M175.289,71.223c0,1.434,0.276,2.788,0.662,4.08c1.308,0.402,2.662,0.677,4.096,0.677
	c7.782,0,14.108-6.317,14.108-14.108c0-1.434-0.276-2.788-0.677-4.096c-1.292-0.394-2.647-0.67-4.08-0.67
	C181.599,57.108,175.289,63.425,175.289,71.223z"/>
<circle style="fill:#2D2612;" cx="304.258" cy="71.223" r="14.108"/>
<path style="fill:#443B23;" d="M290.15,71.223c0,1.434,0.276,2.788,0.677,4.08c1.292,0.402,2.647,0.677,4.08,0.677
	c7.798,0,14.123-6.317,14.123-14.108c0-1.434-0.276-2.788-0.677-4.096c-1.308-0.394-2.647-0.67-4.096-0.67
	C296.476,57.108,290.15,63.425,290.15,71.223z"/>
<path style="fill:#D15400;" d="M276.949,93.767l-27.845-19.692c-1.371-0.969-3.182-0.969-4.553,0l-27.845,19.692
	c-1.095,0.772-1.709,2.032-1.662,3.363s0.772,2.544,1.906,3.23l27.845,16.738c0.614,0.378,1.323,0.559,2.032,0.559
	s1.418-0.181,2.032-0.559l27.845-16.738c1.142-0.685,1.859-1.898,1.906-3.23S278.044,94.531,276.949,93.767z"/>
<path style="fill:#FF6D00;" d="M276.949,93.767l-27.845-19.692c-1.371-0.969-3.182-0.969-4.553,0l-27.845,19.692
	c-1.095,0.772-1.709,2.032-1.662,3.363s0.772,2.544,1.906,3.23l27.845,5.238c0.614,0.378,1.323,0.559,2.032,0.559
	s1.418-0.181,2.032-0.559l27.845-5.238c1.142-0.685,1.859-1.898,1.906-3.23S278.044,94.531,276.949,93.767z"/>
<g>
</g>
<g>
</g>
<g>
</g>
<g>
</g>
<g>
</g>
<g>
</g>
<g>
</g>
<g>
</g>
<g>
</g>
<g>
</g>
<g>
</g>
<g>
</g>
<g>
</g>
<g>
</g>
<g>
</g>
</svg>
