<?xml version="1.0" encoding="iso-8859-1"?>
<!-- Generator: Adobe Illustrator 19.0.0, SVG Export Plug-In . SVG Version: 6.00 Build 0)  -->
<svg version="1.1" id="Layer_1" xmlns="http://www.w3.org/2000/svg" xmlns:xlink="http://www.w3.org/1999/xlink" x="0px" y="0px"
	 viewBox="0 0 469.496 469.496" style="enable-background:new 0 0 469.496 469.496;" xml:space="preserve">
<path style="fill:#E09B00;" d="M423.794,304.656c0,83.716-84.63,110.702-189.046,110.702S45.702,388.372,45.702,304.656
	c0-83.724,84.63-151.568,189.046-151.568S423.794,220.94,423.794,304.656z"/>
<path style="fill:#EFB600;" d="M45.702,304.656c0-83.724,84.63-151.568,189.046-151.568"/>
<path style="fill:#DB8C00;" d="M234.748,153.088c104.416,0,189.046,67.844,189.046,151.568c0,83.716-84.63,110.702-189.046,110.702"
	/>
<path style="fill:#E09B00;" d="M234.748,153.088c104.416,0,189.046,67.844,189.046,151.568"/>
<path style="fill:#F4C237;" d="M375.194,112.601c0,62.188-62.882,82.243-140.446,82.243S94.303,174.789,94.303,112.601
	C94.303,50.42,157.184,0,234.748,0S375.194,50.42,375.194,112.601z"/>
<path style="fill:#EFB600;" d="M375.194,112.601c0,62.188-62.882,82.243-140.446,82.243S94.303,174.789,94.303,112.601
	c0-62.18,62.881-101.36,140.446-101.36S375.194,50.42,375.194,112.601z"/>
<path style="fill:#EDA900;" d="M375.194,112.601c0,62.188-62.882,82.243-140.446,82.243S94.303,174.789,94.303,112.601"/>
<circle style="fill:#2D2612;" cx="172.3" cy="77.446" r="15.344"/>
<path style="fill:#443B23;" d="M156.956,77.446c0,1.552,0.299,3.025,0.74,4.435c1.41,0.433,2.883,0.733,4.443,0.733
	c8.468,0,15.336-6.861,15.336-15.336c0-1.568-0.307-3.033-0.74-4.45c-1.41-0.433-2.883-0.725-4.427-0.725
	C163.832,62.11,156.956,68.97,156.956,77.446z"/>
<circle style="fill:#2D2612;" cx="297.212" cy="77.446" r="15.336"/>
<path style="fill:#443B23;" d="M281.844,77.446c0,1.552,0.307,3.025,0.725,4.435c1.426,0.433,2.899,0.733,4.443,0.733
	c8.468,0,15.336-6.861,15.336-15.336c0-1.568-0.299-3.033-0.74-4.45c-1.394-0.433-2.867-0.725-4.427-0.725
	C288.705,62.11,281.844,68.97,281.844,77.446z"/>
<path style="fill:#D15400;" d="M267.492,101.959l-30.279-21.409c-1.481-1.056-3.45-1.056-4.939,0l-30.279,21.409
	c-1.197,0.827-1.859,2.213-1.804,3.647c0.047,1.449,0.827,2.773,2.072,3.529l30.279,18.188c0.67,0.41,1.441,0.607,2.206,0.607
	c0.748,0,1.52-0.197,2.206-0.607l30.279-18.188c1.245-0.756,2.009-2.08,2.072-3.529
	C269.351,104.164,268.674,102.786,267.492,101.959z"/>
<path style="fill:#FF6D00;" d="M267.492,101.959l-30.279-21.409c-1.481-1.056-3.45-1.056-4.939,0l-30.279,21.409
	c-1.197,0.827-1.859,2.213-1.804,3.647c0.047,1.449,0.827,2.773,2.072,3.529l30.279,5.687c0.67,0.417,1.441,0.622,2.206,0.622
	c0.748,0,1.52-0.197,2.206-0.622l30.279-5.687c1.245-0.756,2.009-2.08,2.072-3.529C269.351,104.164,268.674,102.786,267.492,101.959
	z"/>
<ellipse style="fill:#DB8C00;" cx="195.458" cy="392.68" rx="23.788" ry="7.483"/>
<g>
	<path style="fill:#D15400;" d="M207.179,436.082c0,7.081-4.726,12.839-11.808,12.839l0,0c-7.097,0-11.823-5.75-11.823-12.839
		v-39.975c0-7.081,4.726-4.277,11.823-4.277l0,0c7.081,0,11.808-2.804,11.808,4.277V436.082z"/>
	<path style="fill:#D15400;" d="M150.394,469.496c-4.742,0-8.562-4.057-8.562-8.799c0-13.706,11.154-25.096,24.852-25.096h31.531
		c4.742,0,8.57,3.143,8.57,7.877c0,4.726-3.836,7.877-8.57,7.877h-31.531c-4.269,0-7.727,4.387-7.727,8.649
		C158.948,464.746,155.136,469.496,150.394,469.496z"/>
	<path style="fill:#D15400;" d="M175.009,469.496c-4.726,0-8.554-4.057-8.554-8.799c0-13.706,11.154-25.096,24.86-25.096h22.882
		c4.726,0,8.562,3.143,8.562,7.877c0,4.726-3.836,7.877-8.562,7.877h-22.882c-4.269,0-7.727,4.387-7.727,8.649
		C183.58,464.746,179.751,469.496,175.009,469.496z"/>
</g>
<ellipse style="fill:#E09B00;" cx="274.038" cy="392.68" rx="23.788" ry="7.483"/>
<g>
	<path style="fill:#D15400;" d="M262.317,436.082c0,7.081,4.726,12.839,11.807,12.839l0,0c7.097,0,11.823-5.75,11.823-12.839
		v-39.975c0-7.081-4.726-4.277-11.823-4.277l0,0c-7.081-0.008-11.807-2.812-11.807,4.269V436.082z"/>
	<path style="fill:#D15400;" d="M319.102,469.496c4.742,0,8.562-4.057,8.562-8.799c0-13.706-11.154-25.096-24.867-25.096h-31.531
		c-4.734,0-8.57,3.143-8.57,7.877c0,4.726,3.836,7.877,8.57,7.877h31.531c4.269,0,7.743,4.387,7.743,8.649
		C310.548,464.746,314.36,469.496,319.102,469.496z"/>
	<path style="fill:#D15400;" d="M294.487,469.496c4.726,0,8.554-4.057,8.554-8.799c0-13.706-11.154-25.096-24.875-25.096h-22.867
		c-4.726,0-8.562,3.143-8.562,7.877c0,4.726,3.836,7.877,8.562,7.877h22.867c4.269,0,7.743,4.387,7.743,8.649
		C285.917,464.746,289.745,469.496,294.487,469.496z"/>
</g>
<g>
</g>
<g>
</g>
<g>
</g>
<g>
</g>
<g>
</g>
<g>
</g>
<g>
</g>
<g>
</g>
<g>
</g>
<g>
</g>
<g>
</g>
<g>
</g>
<g>
</g>
<g>
</g>
<g>
</g>
</svg>
