<?xml version="1.0" encoding="UTF-8" standalone="no"?>
<!-- Generator: Adobe Illustrator 19.0.0, SVG Export Plug-In . SVG Version: 6.00 Build 0)  -->

<svg
   xmlns:dc="http://purl.org/dc/elements/1.1/"
   xmlns:cc="http://creativecommons.org/ns#"
   xmlns:rdf="http://www.w3.org/1999/02/22-rdf-syntax-ns#"
   xmlns:svg="http://www.w3.org/2000/svg"
   xmlns="http://www.w3.org/2000/svg"
   xmlns:sodipodi="http://sodipodi.sourceforge.net/DTD/sodipodi-0.dtd"
   xmlns:inkscape="http://www.inkscape.org/namespaces/inkscape"
   version="1.1"
   id="Layer_1"
   x="0px"
   y="0px"
   viewBox="0 0 472.64153 560.24419"
   xml:space="preserve"
   inkscape:version="0.91 r13725"
   sodipodi:docname="wurmteller.svg"
   width="472.64154"
   height="560.2442"
   inkscape:export-filename="C:\Users\Frank\Documents\Meine Dokumente\Karten\Interaktive Karte\MovePointOnLine\svg\wurmteller.png"
   inkscape:export-xdpi="7"
   inkscape:export-ydpi="7"><metadata
     id="metadata59"><rdf:RDF><cc:Work
         rdf:about=""><dc:format>image/svg+xml</dc:format><dc:type
           rdf:resource="http://purl.org/dc/dcmitype/StillImage" /><dc:title></dc:title></cc:Work></rdf:RDF></metadata><defs
     id="defs57" /><sodipodi:namedview
     pagecolor="#ffffff"
     bordercolor="#666666"
     borderopacity="1"
     objecttolerance="10"
     gridtolerance="10"
     guidetolerance="10"
     inkscape:pageopacity="0"
     inkscape:pageshadow="2"
     inkscape:window-width="1920"
     inkscape:window-height="1017"
     id="namedview55"
     showgrid="false"
     inkscape:zoom="0.96089639"
     inkscape:cx="167.34039"
     inkscape:cy="265.91134"
     inkscape:window-x="-8"
     inkscape:window-y="-8"
     inkscape:window-maximized="1"
     inkscape:current-layer="layer1"
     fit-margin-top="0"
     fit-margin-left="0"
     fit-margin-right="0"
     fit-margin-bottom="0" /><g
     id="g25"
     transform="translate(54.557378,79.927503)" /><g
     id="g27"
     transform="translate(54.557378,79.927503)" /><g
     id="g29"
     transform="translate(54.557378,79.927503)" /><g
     id="g31"
     transform="translate(54.557378,79.927503)" /><g
     id="g33"
     transform="translate(54.557378,79.927503)" /><g
     id="g35"
     transform="translate(54.557378,79.927503)" /><g
     id="g37"
     transform="translate(54.557378,79.927503)" /><g
     id="g39"
     transform="translate(54.557378,79.927503)" /><g
     id="g41"
     transform="translate(54.557378,79.927503)" /><g
     id="g43"
     transform="translate(54.557378,79.927503)" /><g
     id="g45"
     transform="translate(54.557378,79.927503)" /><g
     id="g47"
     transform="translate(54.557378,79.927503)" /><g
     id="g49"
     transform="translate(54.557378,79.927503)" /><g
     id="g51"
     transform="translate(54.557378,79.927503)" /><g
     id="g53"
     transform="translate(54.557378,79.927503)" /><g
     inkscape:groupmode="layer"
     id="layer1"
     inkscape:label="teller"
     transform="translate(54.557378,79.927503)"><ellipse
       style="fill:#eaeaea"
       cx="-155.27797"
       cy="410.90088"
       id="circle3"
       transform="matrix(0.73534268,-0.67769547,0.89785695,0.44028729,0,0)"
       rx="120.10546"
       ry="153.03046" /><path
       style="fill:#dbdbdb"
       d="m 220.0737,181.0428 c 87.59211,-5.43965 174.4067,37.13212 194.13655,95.19986 19.04628,57.73253 -36.75706,109.16117 -124.78857,115.00577"
       id="path5"
       inkscape:connector-curvature="0" /><ellipse
       style="fill:#c4c4c4"
       cx="-155.27797"
       cy="410.90088"
       id="circle7"
       transform="matrix(0.73534268,-0.67769547,0.89785695,0.44028729,0,0)"
       rx="80.667847"
       ry="102.78165" /><path
       style="fill:#3cc676"
       d="m 79.027469,311.03171 c -0.244183,-0.74016 -2.294921,-1.74579 -3.66208,-2.41621 l -1.367158,-0.67042 0,0 c 0,0 -4.101477,-2.01127 -7.519374,-3.68732 -12.988008,-6.36901 -70.6528601,-35.26687 -78.561995,-27.97777 -7.909134,7.2891 50.63451,35.37706 63.622519,41.74607 3.417897,1.67605 7.519373,3.68731 7.519373,3.68731 l -6.151549,5.6693 c 0,0 -4.101476,-2.01126 -7.519373,-3.68732 -12.988009,-6.369 -70.652861,-35.26687 -78.561995,-27.97777 -7.909135,7.2891 51.318089,35.71228 63.622518,41.74607 3.417897,1.67605 7.519373,3.68732 7.519373,3.68732 l -5.712152,5.26435 c 0,0 -4.101477,-2.01127 -7.519374,-3.68732 -12.304429,-6.0338 -70.65286,-35.26687 -78.561995,-27.97777 -7.909134,7.28909 50.6345103,35.37706 63.6225188,41.74606 3.4178972,1.67606 7.5193732,3.68732 7.5193732,3.68732 l 0,0 c 0,0 0.683579,0.33521 1.367159,0.67042 1.367159,0.67043 2.734317,1.34085 4.540873,1.60632 24.266735,7.55688 41.501798,4.22058 54.537446,-4.89754 37.841713,27.86295 161.325403,87.79594 192.770053,103.21563 38.28045,18.77181 49.0225,25.28029 61.3256,13.94169 12.3031,-11.33859 -0.19654,-16.22728 -38.47699,-34.99908 -31.44465,-15.4197 -153.61015,-76.56753 -204.633754,-92.28199 8.934171,-11.12938 8.39617,-23.18116 -9.719017,-36.40735 z"
       id="path21"
       inkscape:connector-curvature="0" /><path
       style="fill:#0aa06e"
       d="m 73.998231,307.94508 c 0,0 -4.101477,-2.01127 -7.519374,-3.68732 -12.988008,-6.36901 -70.6528601,-35.26687 -78.561995,-27.97777 -7.909134,7.2891 50.63451,35.37706 63.622519,41.74607 3.417897,1.67605 7.519373,3.68731 7.519373,3.68731 l -6.151549,5.6693 c 0,0 -3.66208,-2.41621 -7.079977,-4.09227 -12.304429,-6.03379 -66.160957,-35.54582 -76.999623,-28.45246 L 333.17542,473.50528 C 346.35731,461.35679 331.4165,457.75269 293.81964,439.3161 262.37499,423.8964 139.77009,363.15352 88.746486,347.43906 c 8.494775,-10.72443 8.39617,-23.18116 -9.719017,-36.40735 -0.244183,-0.74016 -2.294921,-1.74579 -3.66208,-2.41621 -0.683579,-0.33521 -1.367158,-0.67042 -1.367158,-0.67042 l 0,0 z"
       id="path23"
       inkscape:connector-curvature="0" /><g
       transform="matrix(0.78519067,0,0,0.78519067,67.157483,-79.927503)"
       id="XMLID_1038_"><g
         id="XMLID_1021_"><rect
           x="376.73901"
           y="207.97701"
           style="fill:#be1622"
           width="41.715"
           height="41.715"
           id="rect5" /></g><g
         id="XMLID_1041_"><rect
           x="376.73901"
           y="291.40799"
           style="fill:#be1622"
           width="41.715"
           height="75.086998"
           id="rect8" /></g><g
         id="XMLID_1020_"><rect
           x="259.93701"
           y="333.12299"
           style="fill:#be1622"
           width="41.715"
           height="41.715"
           id="rect11" /></g><g
         id="XMLID_1022_"><rect
           x="259.93701"
           y="249.69299"
           style="fill:#be1622"
           width="41.715"
           height="41.715"
           id="rect14" /></g><g
         id="XMLID_1036_"><rect
           x="259.93701"
           y="166.26199"
           style="fill:#be1622"
           width="41.715"
           height="41.715"
           id="rect17" /></g><g
         id="XMLID_1037_"><polygon
           style="fill:#be1622"
           points="376.739,166.262 335.024,166.262 335.024,124.547 385.082,132.89 393.425,149.576 "
           id="polygon20" /></g><g
         id="XMLID_1019_"><polygon
           style="fill:#be1622"
           points="293.309,416.553 301.652,433.239 259.937,474.954 234.908,449.925 243.251,433.239 268.28,416.553 "
           id="polygon23" /></g><g
         id="XMLID_994_"><polygon
           style="fill:#be1622"
           points="143.135,433.239 176.507,474.954 193.193,466.611 201.536,433.239 176.507,416.553 151.478,416.553 "
           id="polygon26" /></g><g
         id="XMLID_992_"><rect
           x="143.13499"
           y="82.832001"
           style="fill:#f9b233"
           width="41.715"
           height="41.715"
           id="rect29" /></g><g
         id="XMLID_996_"><rect
           x="143.13499"
           y="374.83801"
           style="fill:#f9b233"
           width="41.715"
           height="41.715"
           id="rect32" /></g><g
         id="XMLID_1054_"><rect
           x="193.19299"
           y="441.582"
           style="fill:#f9b233"
           width="50.057999"
           height="41.715"
           id="rect35" /></g><g
         id="XMLID_1042_"><rect
           x="259.93701"
           y="374.83801"
           style="fill:#f9b233"
           width="41.715"
           height="41.715"
           id="rect38" /></g><g
         id="XMLID_1047_"><rect
           x="259.93701"
           y="291.40701"
           style="fill:#f9b233"
           width="41.715"
           height="41.715"
           id="rect41" /></g><g
         id="XMLID_1050_"><rect
           x="259.93701"
           y="207.97701"
           style="fill:#f9b233"
           width="41.715"
           height="41.715"
           id="rect44" /></g><g
         id="XMLID_1053_"><polygon
           style="fill:#f9b233"
           points="335.024,124.547 335.024,166.262 309.995,174.605 276.623,149.576 "
           id="polygon47" /></g><g
         id="XMLID_1052_"><rect
           x="376.73901"
           y="249.69299"
           style="fill:#f9b233"
           width="41.715"
           height="41.715"
           id="rect50" /></g><g
         id="XMLID_1051_"><polygon
           style="fill:#f9b233"
           points="410.111,157.919 418.454,207.977 376.739,207.977 376.739,157.919 "
           id="polygon53" /></g><g
         id="XMLID_991_"><rect
           x="143.13499"
           y="124.547"
           style="fill:#be1622"
           width="41.715"
           height="41.715"
           id="rect56" /></g><g
         id="XMLID_995_"><rect
           x="143.13499"
           y="333.12299"
           style="fill:#be1622"
           width="41.715"
           height="41.715"
           id="rect59" /></g><g
         id="XMLID_993_"><polygon
           style="fill:#be1622"
           points="143.135,82.832 118.106,49.46 84.734,49.46 74.773,16.398 111.898,6.023 176.507,41.117 181.231,83.065 "
           id="polygon62" /></g><g
         id="XMLID_1101_"><path
           inkscape:connector-curvature="0"
           style="fill:#f9b233"
           d="m 204.379,333.122 -80.773,0 c -3.037,0 -5.5,-2.462 -5.5,-5.5 l 0,-155.86 c 0,-3.038 2.462,-5.5 5.5,-5.5 l 80.773,0 c 3.038,0 5.5,2.462 5.5,5.5 l 0,155.86 c 0,3.038 -2.462,5.5 -5.5,5.5 z"
           id="path65" /></g><g
         id="XMLID_322_"><g
           id="XMLID_323_"><rect
             x="134.79201"
             y="192.134"
             style="fill:#1d1d1b"
             width="58.401001"
             height="15"
             id="rect69" /></g><g
           id="XMLID_329_"><rect
             x="134.79201"
             y="292.25101"
             style="fill:#1d1d1b"
             width="58.401001"
             height="15"
             id="rect72" /></g><path
           inkscape:connector-curvature="0"
           style="fill:#1d1d1b"
           d="m 425.955,199.634 c 0,-45.538 -37.049,-82.587 -82.588,-82.587 l -8.343,0 c -45.538,0 -82.587,37.048 -82.587,82.587 l 0,208.575 c 0,14.266 -11.606,25.872 -25.872,25.872 l -8.343,0 c -14.266,0 -25.872,-11.606 -25.872,-25.872 l 0,-67.613 c 13.891,-0.533 25.029,-11.993 25.029,-26.012 l 0,-129.783 c 0,-14.019 -11.138,-25.48 -25.029,-26.013 l 0,-75.956 C 192.35,37.313 155.332,0.276 109.819,0.245 L 93.187,0.001 93.077,0 c -15.704,0 -28.48,12.776 -28.48,28.48 0,15.704 12.776,28.48 28.48,28.48 l 16.686,0 c 14.266,0 25.872,11.606 25.872,25.872 l 0,75.955 c -13.891,0.533 -25.029,11.994 -25.029,26.013 l 0,129.784 c 0,14.019 11.138,25.48 25.029,26.012 l 0,67.613 c 0,45.539 37.048,82.587 82.587,82.587 l 8.343,0 c 45.539,0 82.587,-37.048 82.587,-82.587 l 0,-208.575 c 0,-14.266 11.606,-25.872 25.872,-25.872 l 8.343,0 c 14.266,0 25.872,11.606 25.872,25.872 l 0,150.174 c 0,15.704 12.776,28.48 28.48,28.48 15.704,0 28.48,-12.776 28.48,-28.492 l -0.244,-150.162 z m -15,0.012 0.001,0.831 -26.717,0 0,-0.843 c 0,-8.564 -2.653,-16.517 -7.172,-23.092 l 19.068,-19.067 c 9.262,11.569 14.82,26.229 14.82,42.171 z m -26.716,57.546 26.81,0 0.044,26.715 -26.853,0 0,-26.715 -0.001,0 z m 0,-15 0,-26.715 26.742,0 0.044,26.715 -26.786,0 z m -107.896,-76.027 23.941,11.97 c -3.882,6.25 -6.132,13.615 -6.132,21.499 l 0,0.843 -26.715,0 0,-0.843 c 0,-12.172 3.251,-23.593 8.906,-33.469 z m 17.788,242.888 -26.715,0 c 0.006,-0.281 0.021,-0.561 0.021,-0.843 l 0,-25.872 26.715,0 0,25.872 c 0,0.282 -0.018,0.561 -0.021,0.843 z m -26.694,-41.716 0,-26.715 26.715,0 0,26.715 -26.715,0 z m 0,-41.715 0,-26.715 26.715,0 0,26.715 -26.715,0 z m 0,-41.714 0,-26.715 26.715,0 0,26.715 -26.715,0 z m 0,-41.716 0,-26.715 26.715,0 0,26.715 -26.715,0 z m -90.065,166.861 -26.715,0 c -0.003,-0.282 -0.021,-0.561 -0.021,-0.843 l 0,-25.872 26.715,0 0,25.872 c -0.001,0.282 0.015,0.561 0.021,0.843 z m -0.022,-41.716 -26.715,0 0,-26.715 26.715,0 0,26.715 z m -26.715,-277.005 26.715,0 0,26.715 -26.715,0 0,-26.715 z m 0,41.715 26.715,0 0,26.715 -26.715,0 0,-26.715 z m -40.872,-90.087 -16.686,0 c -7.433,0 -13.48,-6.047 -13.48,-13.48 0,-7.417 6.021,-13.454 13.431,-13.48 l 16.625,0.244 0.11,10e-4 c 34.732,0 63.417,26.338 67.161,60.087 l -26.991,0 C 146.4,56.367 129.737,41.96 109.763,41.96 Z m 15.843,272.624 0,-129.783 c 0,-6.087 4.952,-11.038 11.038,-11.038 l 54.697,0 c 6.086,0 11.038,4.952 11.038,11.038 l 0,129.784 c 0,5.746 -4.414,10.475 -10.029,10.987 l -56.715,0 c -5.615,-0.513 -10.029,-5.242 -10.029,-10.988 z m 26.923,109.469 28.019,0 c 2.808,6.652 7.331,12.408 13.009,16.72 l -12.064,24.128 c -14.288,-9.289 -24.856,-23.818 -28.964,-40.848 z m 65.693,51.744 c -8.197,0 -16.056,-1.469 -23.332,-4.154 l 12.075,-24.15 c 3.579,1.027 7.352,1.589 11.257,1.589 l 8.343,0 c 1.222,0 2.428,-0.064 3.623,-0.17 l 12.467,24.934 c -5.16,1.265 -10.546,1.951 -16.09,1.951 l -8.343,0 0,0 z m 38.592,-7.174 -11.943,-23.886 c 8.665,-4.36 15.58,-11.704 19.37,-20.684 l 28.018,0 c -4.708,19.516 -17.899,35.749 -35.445,44.57 z m 54.082,-301.952 -25.569,-12.784 c 10.763,-11.683 25.58,-19.57 42.196,-21.413 l 0,26.99 c -6.129,1.142 -11.782,3.651 -16.627,7.207 z m 32.471,-7.909 -0.843,0 0,-26.715 0.843,0 c 15.937,0 30.593,5.557 42.161,14.82 l -19.068,19.068 c -6.575,-4.52 -14.529,-7.173 -23.093,-7.173 z m 54.352,204.527 c -7.434,0 -13.48,-6.047 -13.48,-13.48 l 0,-50.901 26.878,0 0.083,50.901 c 0,7.433 -6.047,13.48 -13.481,13.48 z"
           id="path74" /></g></g></g></svg>